<?xml version="1.0" encoding="utf-8"?>
<!-- Generator: Adobe Illustrator 21.0.2, SVG Export Plug-In . SVG Version: 6.00 Build 0)  -->
<svg version="1.1" xmlns="http://www.w3.org/2000/svg" xmlns:xlink="http://www.w3.org/1999/xlink" x="0px" y="0px" width="90px"
	 height="90px" viewBox="0 0 90 90" style="enable-background:new 0 0 90 90;" xml:space="preserve">
<style type="text/css">
	.st0{opacity:0.1;fill:url(#SVGID_1_);}
	.st1{fill:#989898;}
	.st2{fill:#FFFFFF;}
	.st3{fill:#EDECED;}
	.st4{fill:#FCFCFC;}
	.st5{fill:#00BF6F;}
</style>
<g id="Layer_2">
</g>
<g id="Layer_3">
</g>
<g id="Layer_1">
	<linearGradient id="SVGID_1_" gradientUnits="userSpaceOnUse" x1="-4416.3999" y1="3756.4727" x2="-4416.3999" y2="3734.8196">
		<stop  offset="0.1168" style="stop-color:#F4F4F4"/>
		<stop  offset="0.1998" style="stop-color:#EAEAEA"/>
		<stop  offset="0.3385" style="stop-color:#D1D1D1"/>
		<stop  offset="0.5158" style="stop-color:#A7A7A7"/>
		<stop  offset="0.7247" style="stop-color:#6D6D6D"/>
		<stop  offset="0.9579" style="stop-color:#232323"/>
		<stop  offset="0.986" style="stop-color:#1A1A1A"/>
	</linearGradient>
	<path class="st0" d="M-4098.7,3756.5c0,0-39.4-21.4-69.3-21.4c-119.8-0.3-380.3-0.3-497.8,0c-22,0.1-59,10.2-68.4,21.1
		L-4098.7,3756.5z"/>
	<path class="st1" d="M43.2,59.8H12.9c-1.6,0-2.9-1.3-2.9-2.9v-4.3c0-1.6,1.3-2.9,2.9-2.9h30.3c1.6,0,2.9,1.3,2.9,2.9V57
		C46,58.6,44.8,59.8,43.2,59.8z M12.9,51.8c-0.5,0-0.9,0.4-0.9,0.9V57c0,0.5,0.4,0.9,0.9,0.9h30.3c0.5,0,0.9-0.4,0.9-0.9v-4.3
		c0-0.5-0.4-0.9-0.9-0.9H12.9z"/>
	<path class="st1" d="M45.9,68H15.6c-1.6,0-2.9-1.3-2.9-2.9v-4.3c0-1.6,1.3-2.9,2.9-2.9h30.3c1.6,0,2.9,1.3,2.9,2.9v4.3
		C48.7,66.7,47.4,68,45.9,68z M15.6,59.9c-0.5,0-0.9,0.4-0.9,0.9v4.3c0,0.5,0.4,0.9,0.9,0.9h30.3c0.5,0,0.9-0.4,0.9-0.9v-4.3
		c0-0.5-0.4-0.9-0.9-0.9H15.6z"/>
	<path class="st1" d="M48.3,76H18c-1.6,0-2.9-1.3-2.9-2.9v-4.3c0-1.6,1.3-2.9,2.9-2.9h30.3c1.6,0,2.9,1.3,2.9,2.9v4.3
		C51.1,74.7,49.9,76,48.3,76z M18,67.9c-0.5,0-0.9,0.4-0.9,0.9v4.3c0,0.5,0.4,0.9,0.9,0.9h30.3c0.5,0,0.9-0.4,0.9-0.9v-4.3
		c0-0.5-0.4-0.9-0.9-0.9H18z"/>
	<path class="st1" d="M45,84H14.7c-1.6,0-2.9-1.3-2.9-2.9v-4.3c0-1.6,1.3-2.9,2.9-2.9H45c1.6,0,2.9,1.3,2.9,2.9v4.3
		C47.9,82.7,46.6,84,45,84z M14.7,76c-0.5,0-0.9,0.4-0.9,0.9v4.3c0,0.5,0.4,0.9,0.9,0.9H45c0.5,0,0.9-0.4,0.9-0.9v-4.3
		c0-0.5-0.4-0.9-0.9-0.9H14.7z"/>
	<path class="st1" d="M46.5,35.6H16.2c-1.6,0-2.9-1.3-2.9-2.9v-4.3c0-1.6,1.3-2.9,2.9-2.9h30.3c1.6,0,2.9,1.3,2.9,2.9v4.3
		C49.3,34.3,48,35.6,46.5,35.6z M16.2,27.5c-0.5,0-0.9,0.4-0.9,0.9v4.3c0,0.5,0.4,0.9,0.9,0.9h30.3c0.5,0,0.9-0.4,0.9-0.9v-4.3
		c0-0.5-0.4-0.9-0.9-0.9H16.2z"/>
	<path class="st1" d="M44,43.7H13.7c-1.6,0-2.9-1.3-2.9-2.9v-4.3c0-1.6,1.3-2.9,2.9-2.9H44c1.6,0,2.9,1.3,2.9,2.9v4.3
		C46.9,42.4,45.6,43.7,44,43.7z M13.7,35.7c-0.5,0-0.9,0.4-0.9,0.9v4.3c0,0.5,0.4,0.9,0.9,0.9H44c0.5,0,0.9-0.4,0.9-0.9v-4.3
		c0-0.5-0.4-0.9-0.9-0.9H13.7z"/>
	<path class="st1" d="M51,51.7H16.3c-1.6,0-3-1.3-3-3v-4.1c0-1.6,1.3-3,3-3H51c1.6,0,3,1.3,3,3v4.1C53.9,50.4,52.6,51.7,51,51.7z
		 M16.3,43.7c-0.5,0-1,0.4-1,1v4.1c0,0.5,0.4,1,1,1H51c0.5,0,1-0.4,1-1v-4.1c0-0.5-0.4-1-1-1H16.3z"/>
	<path class="st1" d="M46.5,19.4H16.2c-1.6,0-2.9-1.3-2.9-2.9v-4.3c0-1.6,1.3-2.9,2.9-2.9h30.3c1.6,0,2.9,1.3,2.9,2.9v4.3
		C49.3,18.1,48,19.4,46.5,19.4z M16.2,11.4c-0.5,0-0.9,0.4-0.9,0.9v4.3c0,0.5,0.4,0.9,0.9,0.9h30.3c0.5,0,0.9-0.4,0.9-0.9v-4.3
		c0-0.5-0.4-0.9-0.9-0.9H16.2z"/>
	<path class="st1" d="M44,27.5H13.7c-1.6,0-2.9-1.3-2.9-2.9v-4.3c0-1.6,1.3-2.9,2.9-2.9H44c1.6,0,2.9,1.3,2.9,2.9v4.3
		C46.9,26.3,45.6,27.5,44,27.5z M13.7,19.5c-0.5,0-0.9,0.4-0.9,0.9v4.3c0,0.5,0.4,0.9,0.9,0.9H44c0.5,0,0.9-0.4,0.9-0.9v-4.3
		c0-0.5-0.4-0.9-0.9-0.9H13.7z"/>
	<path class="st2" d="M59.4,52.6c-13.5,0-24.4-11-24.4-24.4s11-24.4,24.4-24.4s24.4,11,24.4,24.4S72.8,52.6,59.4,52.6z M59.4,7.7
		c-11.3,0-20.4,9.2-20.4,20.4s9.2,20.4,20.4,20.4s20.4-9.2,20.4-20.4S70.6,7.7,59.4,7.7z"/>
	<g>
		<path class="st3" d="M72.1,83H35.8c-1.1,0-2-0.9-2-2v-4c0-1.1,0.9-2,2-2h36.3c1.1,0,2,0.9,2,2v4C74.2,82.1,73.2,83,72.1,83z"/>
		<path class="st2" d="M72.1,84.5H35.8c-1.9,0-3.5-1.6-3.5-3.5v-4c0-1.9,1.6-3.5,3.5-3.5h36.3c1.9,0,3.5,1.6,3.5,3.5v4
			C75.7,82.9,74.1,84.5,72.1,84.5z M35.8,76.4c-0.3,0-0.5,0.2-0.5,0.5v4c0,0.3,0.2,0.5,0.5,0.5h36.3c0.3,0,0.5-0.2,0.5-0.5v-4
			c0-0.3-0.2-0.5-0.5-0.5H35.8z"/>
	</g>
	<g>
		<path class="st3" d="M72,67.5H35.9c-1.2,0-2.1-0.9-2.1-2.1v-4.5c0-1.2,0.9-2.1,2.1-2.1H72c1.2,0,2.1,0.9,2.1,2.1v4.5
			C74.2,66.6,73.2,67.5,72,67.5z"/>
		<path class="st2" d="M72.1,69.5H35.9c-2.3,0-4.1-1.8-4.1-4.1v-4.5c0-2.3,1.8-4.1,4.1-4.1h36.1c2.3,0,4.1,1.8,4.1,4.1v4.5
			C76.2,67.7,74.3,69.5,72.1,69.5z M35.9,60.8c-0.1,0-0.1,0.1-0.1,0.1v4.5c0,0.1,0.1,0.1,0.1,0.1h36.1c0.1,0,0.1-0.1,0.1-0.1v-4.5
			c0-0.1-0.1-0.1-0.1-0.1H35.9z"/>
	</g>
	<g>
		<path class="st3" d="M74.9,58.6H38.8c-1.2,0-2.1-0.9-2.1-2.1v-4.5c0-1.2,0.9-2.1,2.1-2.1h36.1c1.2,0,2.1,0.9,2.1,2.1v4.5
			C77,57.6,76.1,58.6,74.9,58.6z"/>
		<path class="st2" d="M74.9,60.6H38.8c-2.3,0-4.1-1.8-4.1-4.1v-4.5c0-2.3,1.8-4.1,4.1-4.1h36.1c2.3,0,4.1,1.8,4.1,4.1v4.5
			C79,58.7,77.2,60.6,74.9,60.6z M38.8,51.8c-0.1,0-0.1,0.1-0.1,0.1v4.5c0,0.1,0.1,0.1,0.1,0.1h36.1c0.1,0,0.1-0.1,0.1-0.1v-4.5
			c0-0.1-0.1-0.1-0.1-0.1H38.8z"/>
	</g>
	<g>
		<path class="st3" d="M74.3,74.9H38c-1.1,0-2-0.9-2-2v-4c0-1.1,0.9-2,2-2h36.3c1.1,0,2,0.9,2,2v4C76.3,74,75.4,74.9,74.3,74.9z"/>
		<path class="st2" d="M74.3,76.4H38c-1.9,0-3.5-1.6-3.5-3.5v-4c0-1.9,1.6-3.5,3.5-3.5h36.3c1.9,0,3.5,1.6,3.5,3.5v4
			C77.8,74.8,76.2,76.4,74.3,76.4z M38,68.4c-0.3,0-0.5,0.2-0.5,0.5v4c0,0.3,0.2,0.5,0.5,0.5h36.3c0.3,0,0.5-0.2,0.5-0.5v-4
			c0-0.3-0.2-0.5-0.5-0.5H38z"/>
	</g>
	<path class="st1" d="M88.2,83.9H1.8c-0.6,0-1-0.4-1-1s0.4-1,1-1h86.3c0.6,0,1,0.4,1,1S88.7,83.9,88.2,83.9z"/>
	<g>
		<g>
			<path class="st3" d="M75.8,58.8H39.5c-1.1,0-2-0.9-2-2v-4c0-1.1,0.9-2,2-2h36.3c1.1,0,2,0.9,2,2v4C77.8,57.9,76.9,58.8,75.8,58.8
				z"/>
			<rect x="46.1" y="51.4" class="st4" width="2.2" height="6.9"/>
			<rect x="50" y="51.4" class="st4" width="5" height="6.9"/>
			<path class="st3" d="M72.9,67H36.6c-1.1,0-2-0.9-2-2v-4c0-1.1,0.9-2,2-2h36.3c1.1,0,2,0.9,2,2v4C74.9,66,74,67,72.9,67z"/>
			<rect x="43.3" y="59.5" class="st4" width="2.2" height="6.9"/>
			<rect x="47.1" y="59.5" class="st4" width="5" height="6.9"/>
			<path class="st3" d="M75.8,74.9H39.5c-1.1,0-2-0.9-2-2v-4c0-1.1,0.9-2,2-2h36.3c1.1,0,2,0.9,2,2v4C77.8,74,76.9,74.9,75.8,74.9z"
				/>
			<rect x="46.1" y="67.5" class="st4" width="2.2" height="6.9"/>
			<rect x="50" y="67.5" class="st4" width="5" height="6.9"/>
			<path class="st3" d="M73.6,83H37.3c-1.1,0-2-0.9-2-2v-4c0-1.1,0.9-2,2-2h36.3c1.1,0,2,0.9,2,2v4C75.6,82.1,74.7,83,73.6,83z"/>
			<rect x="44" y="75.5" class="st4" width="2.2" height="6.9"/>
			<rect x="47.8" y="75.5" class="st4" width="5" height="6.9"/>
		</g>
		<path class="st1" d="M75.8,59.8H39.5c-1.7,0-3-1.4-3-3v-4c0-1.7,1.4-3,3-3h36.3c1.7,0,3,1.4,3,3v4C78.8,58.5,77.4,59.8,75.8,59.8z
			 M39.5,51.8c-0.6,0-1,0.5-1,1v4c0,0.6,0.5,1,1,1h36.3c0.6,0,1-0.5,1-1v-4c0-0.6-0.5-1-1-1H39.5z"/>
		<path class="st1" d="M75.8,75.9H39.5c-1.7,0-3-1.4-3-3v-4c0-1.7,1.4-3,3-3h36.3c1.7,0,3,1.4,3,3v4C78.8,74.6,77.4,75.9,75.8,75.9z
			 M39.5,67.9c-0.6,0-1,0.5-1,1v4c0,0.6,0.5,1,1,1h36.3c0.6,0,1-0.5,1-1v-4c0-0.6-0.5-1-1-1H39.5z"/>
		<path class="st1" d="M73.7,84H37.4c-1.7,0-3-1.4-3-3v-4c0-1.7,1.4-3,3-3h36.3c1.7,0,3,1.4,3,3v4C76.7,82.6,75.4,84,73.7,84z
			 M37.4,75.9c-0.6,0-1,0.5-1,1v4c0,0.6,0.5,1,1,1h36.3c0.6,0,1-0.5,1-1v-4c0-0.6-0.5-1-1-1H37.4z"/>
		<path class="st1" d="M73,68H36.7c-1.7,0-3-1.4-3-3v-4c0-1.7,1.4-3,3-3H73c1.7,0,3,1.4,3,3v4C76.1,66.6,74.7,68,73,68z M36.7,59.9
			c-0.6,0-1,0.5-1,1v4c0,0.6,0.5,1,1,1H73c0.6,0,1-0.5,1-1v-4c0-0.6-0.5-1-1-1H36.7z"/>
	</g>
	<g>
		<g>
			<circle class="st2" cx="59.4" cy="28.2" r="21.6"/>
			<path class="st5" d="M59.4,50.8c-12.5,0-22.6-10.2-22.6-22.6c0-12.5,10.2-22.6,22.6-22.6C71.8,5.5,82,15.7,82,28.2
				C82,40.7,71.8,50.8,59.4,50.8z M59.4,7.5c-11.4,0-20.6,9.3-20.6,20.6S48,48.8,59.4,48.8c11.4,0,20.6-9.3,20.6-20.6
				S70.7,7.5,59.4,7.5z"/>
		</g>
		<g>
			<circle class="st2" cx="59.4" cy="28.2" r="17.1"/>
			<path class="st5" d="M59.4,46.3c-10,0-18.1-8.1-18.1-18.1s8.1-18.1,18.1-18.1s18.1,8.1,18.1,18.1S69.3,46.3,59.4,46.3z
				 M59.4,12.1c-8.9,0-16.1,7.2-16.1,16.1c0,8.9,7.2,16.1,16.1,16.1S75.4,37,75.4,28.2C75.4,19.3,68.2,12.1,59.4,12.1z"/>
		</g>
		<g>
			<path class="st5" d="M68.5,26.6L65.9,22c-0.1-0.1-0.2-0.2-0.3-0.2c0,0,0,0,0,0v0h-6.3c0,0,0,0,0,0c0,0,0,0,0,0h-6.3v0
				c0,0,0,0,0,0c-0.1,0-0.2,0.1-0.3,0.2l-2.6,4.6c-0.1,0.1-0.1,0.3,0,0.4l8.9,10.5c0.1,0.1,0.2,0.1,0.3,0.1c0.1,0,0.2,0,0.3-0.1
				L68.5,27C68.6,26.9,68.6,26.7,68.5,26.6z M67.7,26.4h-4.4l2.3-3.6L67.7,26.4z M59.4,22.7l2.7,3.7h-5.3L59.4,22.7z M56.1,26.2
				l-2.4-3.7h5L56.1,26.2z M60,22.5h5l-2.4,3.7L60,22.5z M62.2,27.1l-2.8,8.8l-2.8-8.8H62.2z M58.7,36l-7.5-8.9h4.6L58.7,36z
				 M62.9,27.1h4.6L60,36L62.9,27.1z M53.1,22.8l2.3,3.6H51L53.1,22.8z"/>
			<path class="st5" d="M59.4,38.1c-0.2,0-0.5-0.1-0.6-0.3l-8.9-10.5c-0.2-0.3-0.3-0.6-0.1-0.9l2.6-4.6c0.1-0.3,0.4-0.4,0.7-0.4
				c0,0,0.1,0,0.1,0l12.4,0c0.3,0,0.6,0.2,0.7,0.4l2.6,4.6c0,0,0,0,0,0c0.2,0.3,0.1,0.7-0.1,0.9L60,37.8
				C59.8,38,59.6,38.1,59.4,38.1z M59.5,37.2L59.5,37.2C59.5,37.2,59.5,37.2,59.5,37.2z M58.9,36.5l0.5,0.6l0.5-0.6c0,0,0,0-0.1,0
				c-0.1,0-0.1-0.1-0.1-0.1c-0.2,0.1-0.4,0.1-0.5,0C59.1,36.4,59,36.4,58.9,36.5C58.9,36.5,58.9,36.5,58.9,36.5z M57.2,27.6l2.2,6.7
				l2.2-6.7H57.2z M63.3,27.6l-2,6.2l5.2-6.2H63.3z M52.3,27.6l5.2,6.2l-2-6.2H52.3z M62.5,26.7C62.5,26.7,62.5,26.7,62.5,26.7
				c0.1,0,0.1,0,0.2,0C62.6,26.7,62.5,26.7,62.5,26.7C62.5,26.6,62.5,26.6,62.5,26.7L62.5,26.7z M56.1,26.7
				C56.1,26.7,56.1,26.7,56.1,26.7c0.1,0,0.1,0,0.2,0l0,0c0,0,0,0,0,0C56.2,26.7,56.2,26.7,56.1,26.7z M64.2,25.9h2.7l-1.2-2.2
				L64.2,25.9z M57.7,25.9H61l-1.7-2.4L57.7,25.9z M51.9,25.9h2.7l-1.4-2.2L51.9,25.9z M61,23l1.6,2.3l1.5-2.3H61z M54.6,23l1.5,2.3
				l1.6-2.3H54.6z M53.3,22.2L53.3,22.2C53.3,22.2,53.3,22.2,53.3,22.2z"/>
		</g>
	</g>
</g>
</svg>
