<svg viewBox="0 0 160 84" xmlns="http://www.w3.org/2000/svg" xmlns:xlink="http://www.w3.org/1999/xlink"><linearGradient id="a" x1="17.372046%" x2="82.628077%" y1="-5.806152%" y2="105.806264%"><stop offset="0" stop-color="#5a62c3"/><stop offset=".5" stop-color="#4d55bd"/><stop offset="1" stop-color="#3940ab"/></linearGradient><g fill="none" fill-rule="evenodd"><path d="m0 0h160v100h-160z"/><g fill-rule="nonzero" transform="translate(55 26.11225)"><path d="m35.3558 18h12.7736c1.2068 0 2.185.985 2.185 2.2v11.7144c.0001 4.4656-3.5954 8.0856-8.0306 8.0856h-.038c-4.4352.0006-8.0312-3.6189-8.0319-8.0844v-12.7658c0-.635.5113-1.1498 1.142-1.1498z" fill="#5059c9"/><ellipse cx="44.27673" cy="9.5" fill="#5059c9" rx="5.031447" ry="5.5"/><ellipse cx="27.672956" cy="7.5" fill="#7b83eb" rx="7.54717" ry="7.5"/><path d="m38.0686 18h-21.7976c-1.2327.0298-2.2079 1.028-2.1792 2.2307v13.3852c-.1722 7.2178 5.6805 13.2075 13.078 13.3841 7.3975-.1766 13.2502-6.1663 13.078-13.384v-13.3854c.0286-1.2028-.9465-2.201-2.1792-2.2307z" fill="#7b83eb"/><g fill="#000"><path d="m28.1761 18v18.865c-.0058.8651-.5334 1.6423-1.3383 1.9717a2.0904 2.0904 0 0 1 -.81.1633h-10.906c-.1527-.385-.2935-.77-.411-1.1667a14.1276 14.1276 0 0 1 -.6221-4.13v-13.4633c-.0283-1.2078.933-2.21 2.1483-2.24h11.939z" opacity=".1"/><path d="m27.1698 18v19.881c0 .2745-.0567.5462-.1665.799-.3357.794-1.128 1.3143-2.0097 1.32h-9.2996c-.2022-.3821-.3924-.7642-.559-1.1579-.1664-.3937-.2972-.7642-.4162-1.1579a13.7596 13.7596 0 0 1 -.6302-4.099v-13.362c-.0286-1.1987.9452-2.1935 2.1762-2.2232z" opacity=".2"/><path d="m27.1698 18v17.847c-.009 1.1854-.978 2.144-2.1762 2.153h-10.2747a14.1867 14.1867 0 0 1 -.6302-4.1647v-13.5765c-.0286-1.2179.9452-2.2286 2.1762-2.2588h10.905z" opacity=".2"/><path d="m26.1635 18v17.847c-.0092 1.1854-.9931 2.144-2.2097 2.153h-9.2252a13.9887 13.9887 0 0 1 -.64-4.1647v-13.5765c-.029-1.2179.9598-2.2286 2.2098-2.2588z" opacity=".2"/><path d="m28.1761 11.196v3.78c-.2007.012-.3895.024-.5902.024s-.3895-.012-.5902-.024a6.3808 6.3808 0 0 1 -1.1804-.192c-2.3903-.5755-4.365-2.2797-5.3118-4.584a6.7478 6.7478 0 0 1 -.3777-1.2h5.8902c1.191.0046 2.1556.985 2.1601 2.196z" opacity=".1"/><path d="m27.1698 12.299v2.701a5.329 5.329 0 0 1 -1.0978-.201c-2.223-.6025-4.0595-2.3866-4.94-4.799h4.0289c1.1077.0048 2.0047 1.0313 2.009 2.299z" opacity=".2"/><path d="m27.1698 12.299v2.701a5.329 5.329 0 0 1 -1.0978-.201c-2.223-.6025-4.0595-2.3866-4.94-4.799h4.0289c1.1077.0048 2.0047 1.0313 2.009 2.299z" opacity=".2"/><path d="m25.1572 12.9162v2.0838c-2.2641-.5022-4.1347-1.9892-5.0314-4h2.9853c1.1283.004 2.0418.8596 2.0461 1.9162z" opacity=".2"/></g><path d="m2.1799 11h21.8037c1.204 0 2.18.9699 2.18 2.1663v21.6674c0 1.1964-.976 2.1663-2.18 2.1663h-21.8036c-1.2041 0-2.18-.9699-2.18-2.1663v-21.6674c0-1.1964.976-2.1663 2.1799-2.1663z" fill="url(#a)"/><path d="m18.1132 18.2746h-4.2049v11.7254h-2.679v-11.7254h-4.1853v-2.2746h11.0692z" fill="#fff"/></g></g></svg>