<?xml version="1.0" encoding="UTF-8" standalone="no"?>
<svg width="118px" height="90px" viewBox="0 0 118 90" version="1.1" xmlns="http://www.w3.org/2000/svg" xmlns:xlink="http://www.w3.org/1999/xlink">
    <!-- Generator: Sketch 43.1 (39012) - http://www.bohemiancoding.com/sketch -->
    <title>UCS_Top_Bar_Upgrade-color</title>
    <desc>Created with Sketch.</desc>
    <defs></defs>
    <g id="J-UCS---DONE!" stroke="none" stroke-width="1" fill="none" fill-rule="evenodd">
        <g id="TopBar05_Abandoned-Checkout" transform="translate(-181.000000, -24.000000)" fill-rule="nonzero">
            <g id="UCS_Top_Bar_Upgrade-color" transform="translate(181.000000, 24.000000)">
                <g id="Group" transform="translate(3.913043, 10.434783)" fill="#333E48">
                    <ellipse id="Oval" cx="2.7695087" cy="2.22963913" rx="1.64135217" ry="1.64135217"></ellipse>
                    <ellipse id="Oval" cx="8.8299" cy="2.22963913" rx="1.64135217" ry="1.64135217"></ellipse>
                    <ellipse id="Oval" cx="14.7640435" cy="2.22963913" rx="1.64135217" ry="1.64135217"></ellipse>
                </g>
                <g id="Group" transform="translate(0.000000, 5.217391)" fill="#333E48">
                    <path d="M104.417622,82.3726304 C105.312125,82.3726304 106.048057,81.636701 106.048057,80.7422087 L106.048057,4.73118261 C106.048057,3.83667856 105.312126,3.10074783 104.417622,3.10074783 L3.8937,3.10074783 C2.99919595,3.10074783 2.26326522,3.83667856 2.26326522,4.73118261 L2.26326522,80.7421957 C2.26326522,81.6366997 2.99919595,82.3726304 3.8937,82.3726304 L104.417622,82.3726304 Z M104.417622,84.3291522 L3.8937,84.3291522 C1.91863883,84.3291522 0.306743478,82.7172568 0.306743478,80.7421957 L0.306743478,4.73118261 C0.306743478,2.75612144 1.91863883,1.14422609 3.8937,1.14422609 L104.417622,1.14422609 C106.392683,1.14422609 108.004578,2.75612144 108.004578,4.73118261 L108.004578,80.7422087 C108.004578,82.7172596 106.39268,84.3291522 104.417622,84.3291522 Z" id="Shape"></path>
                    <path d="M1.28500435,13.4756217 L107.026317,13.4756217 C107.566596,13.4756217 108.004578,13.0376394 108.004578,12.4973609 C108.004578,11.9570823 107.566596,11.5191 107.026317,11.5191 L1.28500435,11.5191 C0.744725788,11.5191 0.306743478,11.9570823 0.306743478,12.4973609 C0.306743478,13.0376394 0.744725788,13.4756217 1.28500435,13.4756217 Z" id="Shape"></path>
                </g>
                <g id="Group" transform="translate(16.956522, 56.086957)" fill="#333E48">
                    <path d="M32.3840217,19.6879565 L1.40231739,19.6879565 C0.862038832,19.6879565 0.424056522,20.1259388 0.424056522,20.6662174 C0.424056522,21.206496 0.862038832,21.6444783 1.40231739,21.6444783 L32.3840217,21.6444783 C32.9243003,21.6444783 33.3622826,21.206496 33.3622826,20.6662174 C33.3622826,20.1259388 32.9243003,19.6879565 32.3840217,19.6879565 Z" id="Shape"></path>
                    <g transform="translate(3.913043, 0.000000)" id="Rectangle-path">
                        <path d="M3.20881304,12.7225304 L3.20881304,19.6879565 L8.41867826,19.6879565 L8.41867826,12.7225304 L3.20881304,12.7225304 Z M2.23055217,10.7660087 L9.39693913,10.7660087 C9.93721769,10.7660087 10.3752,11.203991 10.3752,11.7442696 L10.3752,20.6662174 C10.3752,21.206496 9.93721769,21.6444783 9.39693913,21.6444783 L2.23055217,21.6444783 C1.69027361,21.6444783 1.2522913,21.206496 1.2522913,20.6662174 L1.2522913,11.7442696 C1.2522913,11.203991 1.69027361,10.7660087 2.23055217,10.7660087 Z"></path>
                        <path d="M10.3752,19.6879565 L15.5850652,19.6879565 L15.5850652,2.60276087 L10.3752,2.60276087 L10.3752,19.6879565 Z M9.39693913,0.64623913 L16.5633261,0.64623913 C17.1036046,0.64623913 17.541587,1.08422144 17.541587,1.6245 L17.541587,20.6662174 C17.541587,21.206496 17.1036046,21.6444783 16.5633261,21.6444783 L9.39693913,21.6444783 C8.85666057,21.6444783 8.41867826,21.206496 8.41867826,20.6662174 L8.41867826,1.6245 C8.41867826,1.08422144 8.85666057,0.64623913 9.39693913,0.64623913 Z"></path>
                        <path d="M17.5415739,7.80773478 L17.5415739,19.6879565 L22.7514391,19.6879565 L22.7514391,7.80773478 L17.5415739,7.80773478 Z M16.563313,5.85121304 L23.7297,5.85121304 C24.2699786,5.85121304 24.7079609,6.28919535 24.7079609,6.82947391 L24.7079609,20.6662174 C24.7079609,21.206496 24.2699786,21.6444783 23.7297,21.6444783 L16.563313,21.6444783 C16.0230345,21.6444783 15.5850522,21.206496 15.5850522,20.6662174 L15.5850522,6.82947391 C15.5850522,6.28919535 16.0230345,5.85121304 16.563313,5.85121304 Z"></path>
                    </g>
                </g>
                <g id="Group" transform="translate(54.782609, 36.521739)" fill="#333E48">
                    <path d="M23.1880826,10.7711348 L29.5892609,10.7711348 C30.1295394,10.7711348 30.5675217,10.3331525 30.5675217,9.79287391 C30.5675217,9.25259535 30.1295394,8.81461304 29.5892609,8.81461304 L23.1880826,8.81461304 C22.647804,8.81461304 22.2098217,9.25259535 22.2098217,9.79287391 C22.2098217,10.3331525 22.647804,10.7711348 23.1880826,10.7711348 Z" id="Shape"></path>
                    <path d="M22.1075609,14.1632739 L30.984313,14.1632739 C31.5245916,14.1632739 31.9625739,13.7252916 31.9625739,13.185013 C31.9625739,12.6447345 31.5245916,12.2067522 30.984313,12.2067522 L22.1075609,12.2067522 C21.5672823,12.2067522 21.1293,12.6447345 21.1293,13.185013 C21.1293,13.7252916 21.5672823,14.1632739 22.1075609,14.1632739 Z" id="Shape"></path>
                    <path d="M22.8997435,17.555413 L31.3056652,17.555413 C31.8459438,17.555413 32.2839261,17.1174307 32.2839261,16.5771522 C32.2839261,16.0368736 31.8459438,15.5988913 31.3056652,15.5988913 L22.8997435,15.5988913 C22.3594649,15.5988913 21.9214826,16.0368736 21.9214826,16.5771522 C21.9214826,17.1174307 22.3594649,17.555413 22.8997435,17.555413 Z" id="Shape"></path>
                    <path d="M22.1075609,20.9475522 L30.8474739,20.9475522 C31.3877525,20.9475522 31.8257348,20.5095699 31.8257348,19.9692913 C31.8257348,19.4290127 31.3877525,18.9910304 30.8474739,18.9910304 L22.1075609,18.9910304 C21.5672823,18.9910304 21.1293,19.4290127 21.1293,19.9692913 C21.1293,20.5095699 21.5672823,20.9475522 22.1075609,20.9475522 Z" id="Shape"></path>
                    <path d="M23.4285913,24.3396913 L29.5355739,24.3396913 C30.0758525,24.3396913 30.5138348,23.901709 30.5138348,23.3614304 C30.5138348,22.8211519 30.0758525,22.3831696 29.5355739,22.3831696 L23.4285913,22.3831696 C22.8883127,22.3831696 22.4503304,22.8211519 22.4503304,23.3614304 C22.4503304,23.901709 22.8883127,24.3396913 23.4285913,24.3396913 Z" id="Shape"></path>
                    <path d="M26.211439,4.95899118 C26.5934781,4.57693296 27.2129062,4.57693344 27.5949446,4.95899225 C33.8467808,11.2111618 33.8467808,21.346886 27.5949446,27.5990556 C27.212913,27.9811076 26.5934982,27.9811159 26.2114564,27.599074 L20.2778868,21.6655045 C19.8958862,21.2835038 19.8958472,20.6641704 20.2777999,20.2821217 C21.3242615,19.2353968 21.9214826,17.8234044 21.9214826,16.313713 C21.9214826,14.7911715 21.3119607,13.3676736 20.2465425,12.3178702 C19.8596946,11.936692 19.857386,11.3133635 20.2413999,10.9293303 L26.211439,4.95899118 Z M22.276715,11.660922 C23.3028624,12.9736339 23.8780043,14.5987347 23.8780043,16.313713 C23.8780043,18.0123136 23.3151742,19.6230105 22.3085173,20.9291953 L26.8794723,25.5001503 C31.4765703,20.2239363 31.4765759,12.334137 26.879489,7.05791671 L22.276715,11.660922 Z" id="Shape"></path>
                    <path d="M20.2779701,20.2819514 C20.6600182,19.8999953 21.2793545,19.9000325 21.6613566,20.2820347 L27.5949262,26.2156042 C27.9769677,26.5976458 27.9769598,27.2170599 27.5949085,27.5990917 C21.3430388,33.8506419 11.2068699,33.8506419 4.95496482,27.5990563 C-1.2968855,21.3468865 -1.2968855,11.2111474 4.95499941,4.95895689 C8.0733674,1.84074135 11.8649616,0.2703 16.2750261,0.2703 C16.8153046,0.2703 17.253287,0.70828231 17.253287,1.24856087 L17.253287,9.72559565 C17.253287,10.2638111 16.8185196,10.700934 16.280312,10.7038422 C13.1932223,10.7205233 10.6982217,13.2267069 10.6982217,16.313713 C10.6982217,19.4131672 13.2107548,21.9259304 16.3098522,21.9259304 C17.8189488,21.9259304 19.2313143,21.3283553 20.2779701,20.2819514 Z M16.3098522,23.8824522 C12.1301575,23.8824522 8.7417,20.4936842 8.7417,16.313713 C8.7417,12.4796858 11.594682,9.31022398 15.2967652,8.81461281 L15.2967652,2.25634129 C11.8284054,2.46849625 8.85627442,3.82474455 6.33846919,6.34242668 C0.850642025,11.8305221 0.850642025,20.7275135 6.33843461,26.2155866 C11.593701,31.4705844 19.9757434,31.6932613 25.4959998,26.8836174 L20.9250508,22.3126684 C19.6188748,23.3193431 18.0080166,23.8824522 16.3098522,23.8824522 Z" id="Shape"></path>
                    <path d="M16.2750261,10.7038565 C15.7347475,10.7038565 15.2967652,10.2658742 15.2967652,9.72559565 L15.2967652,1.24856087 C15.2967652,0.70828231 15.7347475,0.2703 16.2750261,0.2703 C20.6851138,0.2703 24.4767108,1.84075844 27.5949262,4.9589738 C27.976954,5.34100165 27.9769618,5.96038877 27.5949436,6.34242621 L21.6249044,12.3127653 C21.2448865,12.6928024 20.6294495,12.695106 20.2465973,12.3179242 C19.2062761,11.2930114 17.8152469,10.7076062 16.3286908,10.7027006 C16.3196344,10.7030819 16.3089824,10.7032669 16.2750261,10.7038565 Z M16.340473,10.702094 C16.337254,10.7021729 16.3292996,10.7023171 16.3098522,10.7026696 C16.3161334,10.7026696 16.3224129,10.7026799 16.3286908,10.7027006 C16.332391,10.7025449 16.3358249,10.7023563 16.340473,10.702094 Z M20.8841866,10.2865113 L25.4988624,5.67160358 C23.1379493,3.58291816 20.3998369,2.44881178 17.253287,2.25634131 L17.253287,8.80466263 C18.5832267,8.97066006 19.830685,9.48505146 20.8841866,10.2865113 Z" id="Shape"></path>
                </g>
                <g id="Group" transform="translate(15.652174, 27.391304)" fill="#333E48">
                    <path d="M21.0618826,17.0175317 C21.5047389,17.4732859 22.2577939,17.3924298 22.5938016,16.8530482 L30.8716364,3.56492651 C31.1573071,3.10634919 31.0171386,2.50301694 30.5585613,2.21734622 C30.099984,1.9316755 29.4966517,2.07184399 29.210981,2.53042132 L21.5940274,14.7576533 L14.9859478,7.95711616 C14.5777764,7.5370569 13.8944577,7.567392 13.5251146,8.02196805 L3.14150155,20.8017985 C2.80080585,21.2211162 2.86454162,21.8372289 3.28385936,22.1779245 C3.7031771,22.5186202 4.31928972,22.4548845 4.65998541,22.0355667 L14.3496582,10.1098166 L21.0618826,17.0175317 Z" id="Shape"></path>
                    <path d="M3.90074348,24.4004087 C2.25398163,24.4004087 0.919017391,23.0654445 0.919017391,21.4186826 C0.919017391,19.7719208 2.25398163,18.4369565 3.90074348,18.4369565 C5.54750532,18.4369565 6.88246957,19.7719208 6.88246957,21.4186826 C6.88246957,23.0654445 5.54750532,24.4004087 3.90074348,24.4004087 Z M3.90074348,22.443887 C4.4669482,22.443887 4.92594783,21.9848873 4.92594783,21.4186826 C4.92594783,20.8524779 4.4669482,20.3934783 3.90074348,20.3934783 C3.33453875,20.3934783 2.87553913,20.8524779 2.87553913,21.4186826 C2.87553913,21.9848873 3.33453875,22.443887 3.90074348,22.443887 Z" id="Oval"></path>
                    <path d="M30.0413087,6.0294 C28.3945468,6.0294 27.0595826,4.69443576 27.0595826,3.04767391 C27.0595826,1.40091207 28.3945468,0.0659478261 30.0413087,0.0659478261 C31.6880705,0.0659478261 33.0230348,1.40091207 33.0230348,3.04767391 C33.0230348,4.69443576 31.6880705,6.0294 30.0413087,6.0294 Z M30.0413087,4.07287826 C30.6075134,4.07287826 31.066513,3.61387864 31.066513,3.04767391 C31.066513,2.48146919 30.6075134,2.02246957 30.0413087,2.02246957 C29.475104,2.02246957 29.0161043,2.48146919 29.0161043,3.04767391 C29.0161043,3.61387864 29.475104,4.07287826 30.0413087,4.07287826 Z" id="Oval"></path>
                </g>
                <ellipse id="Oval" fill="#F9BE01" cx="100.31683" cy="17.7147522" rx="17.0744739" ry="17.0744739"></ellipse>
                <path d="M106.503052,27.2792087 C106.328543,27.2792087 106.154035,27.2301652 105.999913,27.1295348 L100.316322,23.4183913 L94.6333696,27.1295348 C94.3021826,27.3454435 93.8722826,27.3263348 93.5602174,27.0817696 C93.2500565,26.8372043 93.1309565,26.421313 93.2640652,26.0493783 L95.4517826,19.9352478 L90.4694087,16.3298217 C90.1465043,16.0960826 90.0108522,15.6808304 90.1337739,15.3012522 C90.2566957,14.9216739 90.6101609,14.6650043 91.0088609,14.6650043 L97.3376217,14.6650043 L99.4501826,8.75977826 C99.581387,8.3942087 99.9278478,8.15026957 100.316348,8.15026957 L100.316348,8.15026957 C100.704848,8.15026957 101.051322,8.39419565 101.182513,8.76040435 L103.295074,14.6650043 L109.625113,14.6650043 C110.0238,14.6650043 110.377917,14.9216739 110.5002,15.3012522 C110.622483,15.6808304 110.487457,16.0960957 110.163926,16.3298217 L105.180913,19.9352478 L107.369257,26.0493783 C107.501726,26.4213261 107.383265,26.8372043 107.072465,27.0817696 C106.906839,27.2129739 106.705591,27.2792087 106.503052,27.2792087 Z" id="Shape" fill="#FFFFFF"></path>
            </g>
        </g>
    </g>
</svg>